<?xml version="1.0" encoding="utf-8"?>
<svg viewBox="0 0 100 72" xmlns="http://www.w3.org/2000/svg">
  <rect x="12" y="12" width="76" height="48" style="fill: rgb(255, 0, 0);" rx="6" ry="6"/>
  <path d="M 49.986 21 C 41.706 21 35 27.72 35 36 C 35 44.28 41.706 51 49.986 51 C 58.28 51 65 44.28 65 36 C 65 27.72 58.28 21 49.986 21 Z M 60.38 30 L 55.956 30 C 55.476 28.124 54.786 26.324 53.886 24.66 C 56.646 25.604 58.94 27.524 60.38 30 Z M 50 24.06 C 51.246 25.86 52.22 27.854 52.866 30 L 47.136 30 C 47.78 27.854 48.756 25.86 50 24.06 Z M 38.39 39 C 38.15 38.04 38 37.034 38 36 C 38 34.964 38.15 33.96 38.39 33 L 43.46 33 C 43.34 33.99 43.25 34.98 43.25 36 C 43.25 37.02 43.34 38.01 43.46 39 Z M 39.62 42 L 44.046 42 C 44.526 43.874 45.216 45.674 46.116 47.34 C 43.356 46.394 41.06 44.49 39.62 42 Z M 44.046 30 L 39.62 30 C 41.06 27.51 43.356 25.604 46.116 24.66 C 45.216 26.324 44.526 28.124 44.046 30 Z M 50 47.94 C 48.756 46.14 47.78 44.144 47.136 42 L 52.866 42 C 52.22 44.144 51.246 46.14 50 47.94 Z M 53.51 39 L 46.49 39 C 46.356 38.01 46.25 37.02 46.25 36 C 46.25 34.98 46.356 33.974 46.49 33 L 53.51 33 C 53.646 33.974 53.75 34.98 53.75 36 C 53.75 37.02 53.646 38.01 53.51 39 Z M 53.886 47.34 C 54.786 45.674 55.476 43.874 55.956 42 L 60.38 42 C 58.94 44.474 56.646 46.394 53.886 47.34 Z M 56.54 39 C 56.66 38.01 56.75 37.02 56.75 36 C 56.75 34.98 56.66 33.99 56.54 33 L 61.61 33 C 61.85 33.96 62 34.964 62 36 C 62 37.034 61.85 38.04 61.61 39 Z" fill="#fff"/>
</svg>