<?xml version="1.0" encoding="utf-8"?>
<svg viewBox="0 0 100 72" xmlns="http://www.w3.org/2000/svg">
  <rect x="12" y="12" width="76" height="48" style="fill: rgb(252, 2, 4);" rx="5.718" ry="5.718"/>
  <path style="fill: rgb(255, 255, 255); stroke-width: 0px;" d="M 51.09 46.508 L 61.986 46.509 C 66.356 46.413 69.203 43.393 69.924 39.951 L 70.786 33.049 C 70.749 29.983 68.203 25.587 63.414 25.587 L 54.434 25.492 L 51.09 46.508 Z"/>
  <title>antenna-tower-outline</title>
  <path style="stroke-opacity: 0; stroke-width: 0px; stroke: rgb(186, 218, 85); fill: rgb(255, 255, 255);"/>
  <path style="stroke-opacity: 0; stroke-width: 0px; stroke: rgb(186, 218, 85); fill: rgb(255, 255, 255);" d="M 56.635 87.2"/>
  <path style="fill: rgb(216, 216, 216); stroke: rgb(0, 0, 0);" d="M 30.948 23.911"/>
  <polygon style="fill: rgb(255, 255, 255); stroke-width: 0px;" points="29.215 46.507 35.422 46.508 36.761 37.72 42.207 37.72 40.868 46.413 46.791 46.507 50.231 25.587 44.308 25.587 42.97 33.515 37.239 33.421 38.29 25.683 32.653 25.683"/>
  <path style="fill: rgb(216, 216, 216); stroke: rgb(0, 0, 0);" d="M 63.062 45.303"/>
  <path style="stroke-width: 0px; stroke: rgb(186, 218, 85); fill: rgb(252, 2, 4);" d="M 57.804 41.815 L 61.997 41.815 C 63.537 41.815 64.31 39.96 64.611 38.588 L 65.13 34.287 C 65.236 32.354 63.835 30.3 62.343 30.3 L 59.545 30.247 L 57.804 41.815 Z"/>
  <path style="fill: rgb(216, 216, 216); stroke: rgb(0, 0, 0);" d="M 93.989 48.639"/>
  <path style="fill: rgb(216, 216, 216); stroke: rgb(0, 0, 0);" d="M 64.509 34.85"/>
  <path style="fill: rgb(216, 216, 216); stroke: rgb(0, 0, 0);" d="M 61.634 28.873"/>
  <path style="fill: rgb(216, 216, 216); stroke: rgb(0, 0, 0);" d="M 92.587 42.283"/>
  <path style="fill: rgb(216, 216, 216); stroke: rgb(0, 0, 0);" d="M 132.742 30.004"/>
  <path style="fill: rgb(216, 216, 216); stroke: rgb(0, 0, 0);" d="M 111.42 43.292"/>
  <path style="fill: rgb(216, 216, 216); stroke: rgb(0, 0, 0);" d="M 62.734 45.582"/>
  <path style="fill: rgb(216, 216, 216); stroke: rgb(0, 0, 0);" d="M 15.464 93.601"/>
</svg>