<?xml version="1.0" encoding="utf-8"?>
<svg viewBox="0 0 100 72" xmlns="http://www.w3.org/2000/svg">
  <rect x="12" y="12" width="76" height="48" style="fill: rgb(255, 0, 0);" rx="6" ry="6"/>
  <path d="M 42.125 32.5 L 35.125 32.5 L 35.125 25.5 L 29.875 25.5 L 29.875 46.5 L 35.125 46.5 L 35.125 37.75 L 42.125 37.75 L 42.125 46.5 L 47.375 46.5 L 47.375 25.5 L 42.125 25.5 L 42.125 32.5 Z M 64.875 25.5 L 52.625 25.5 L 52.625 46.5 L 64.875 46.5 C 67.675 46.5 70.125 44.05 70.125 41.25 L 70.125 30.75 C 70.125 27.95 67.675 25.5 64.875 25.5 Z M 64.875 41.25 L 57.875 41.25 L 57.875 30.75 L 64.875 30.75 L 64.875 41.25 Z" style="fill: rgb(255, 255, 255);"/>
</svg>
