<?xml version="1.0" encoding="utf-8"?>
<svg viewBox="0 0 100 72" xmlns="http://www.w3.org/2000/svg">
  <path d="M 31.979 28.627 C 31.621 27.305 30.588 26.272 29.266 25.913 C 26.886 25.265 17.312 25.265 17.312 25.265 C 17.312 25.265 7.737 25.285 5.358 25.933 C 4.036 26.292 3.003 27.324 2.646 28.647 C 1.926 32.873 1.646 39.314 2.665 43.373 C 3.023 44.695 4.056 45.728 5.378 46.085 C 7.757 46.735 17.332 46.735 17.332 46.735 C 17.332 46.735 26.906 46.735 29.285 46.085 C 30.608 45.728 31.64 44.695 31.999 43.373 C 32.757 39.14 32.991 32.703 31.979 28.627 Z" fill="red"/>
  <path fill="#fff" d="M 14.264 40.6 L 22.208 35.999 L 14.264 31.399 Z"/>
  <g fill="#282828" transform="matrix(0.196606, 0, 0, 0.196606, 1.643462, 25.185867)">
    <path d="M227.9 99.7c-3.1-2.1-5.3-5.3-6.6-9.7s-1.9-10.2-1.9-17.5v-9.9c0-7.3.7-13.3 2.2-17.7 1.5-4.5 3.8-7.7 7-9.7s7.3-3.1 12.4-3.1c5 0 9.1 1 12.1 3.1s5.3 5.3 6.7 9.7 2.1 10.3 2.1 17.6v9.9c0 7.3-.7 13.1-2.1 17.5s-3.6 7.6-6.7 9.7c-3.1 2-7.3 3.1-12.5 3.1-5.4.1-9.6-1-12.7-3zM245.2 89c.9-2.2 1.3-5.9 1.3-10.9V56.8c0-4.9-.4-8.5-1.3-10.7-.9-2.3-2.4-3.4-4.5-3.4s-3.5 1.1-4.4 3.4-1.3 5.8-1.3 10.7v21.3c0 5 .4 8.7 1.2 10.9s2.3 3.3 4.5 3.3c2.1 0 3.6-1.1 4.5-3.3zm219.2-16.3v3.5l.4 9.9c.3 2.2.8 3.8 1.6 4.8s2.1 1.5 3.8 1.5c2.3 0 3.9-.9 4.7-2.7.9-1.8 1.3-4.8 1.4-8.9l13.3.8c.1.6.1 1.4.1 2.4 0 6.3-1.7 11-5.2 14.1s-8.3 4.7-14.6 4.7c-7.6 0-12.9-2.4-15.9-7.1s-4.6-12.1-4.6-22V61.6c.34-17 3.33-29.45 20.9-29.5 5.3 0 9.3 1 12.1 2.9s4.8 4.9 6 9 1.7 9.7 1.7 16.9v11.7h-25.7zm2-28.8c-.8 1-1.3 2.5-1.6 4.7s-.4 10-.4 10v4.9h11.2v-4.9c0 4.9-.1-7.7-.4-10s-.8-3.9-1.6-4.8-2-1.4-3.6-1.4c-1.7.1-2.9.6-3.6 1.5zM190.5 71.4L173 8.2h15.3s7.15 31.7 9.6 46.6h.4c2.78-15.82 9.8-46.6 9.8-46.6h15.3l-17.7 63.1v30.3h-15.1V71.4z" style="fill: rgb(255, 255, 255);"/>
    <path id="A" d="M311.5 33.4v68.3h-12l-1.3-8.4h-.3c-3.3 6.3-8.2 9.5-14.7 9.5-11.77-.03-13.08-10-13.2-18.4v-51h15.4v50.1c0 3 .3 5.2 1 6.5 1.42 2.78 5.1 2.07 7.1.7a8 8 0 0 0 2.7-3.1V33.4z" style="fill: rgb(255, 255, 255);"/>
    <path d="M353.3 20.6H338v81.1h-15V20.6h-15.3V8.2h45.5v12.4zm87.9 23.7c-.9-4.3-2.4-7.4-4.5-9.4-2.1-1.9-4.9-2.9-8.6-2.9a14.1 14.1 0 0 0-7.9 2.4c-2.5 1.6-4.3 3.7-5.7 6.3h-.1v-36h-14.8v96.9h12.7l1.6-6.5h.3a14 14 0 0 0 5.3 5.5c2.4 1.3 5 2 7.9 2 5.2 0 9-2.4 11.5-7.2 2.4-4.8 3.7-12.3 3.7-22.4V62.2c0-7.6-.5-13.6-1.4-17.9zm-14.1 27.9c0 5-.2 8.9-.6 11.7s-1.1 4.8-2.1 6-2.3 1.8-3.9 1.8c-3.1-.1-4.86-1.5-6.1-3.6V49.3c.5-1.9 1.4-3.4 2.7-4.6 2.2-2.47 5.96-2.5 7.7 0 .9 1.2 1.4 3.3 1.8 6.2.3 2.9.5 7 .5 12.4z" style="fill: rgb(255, 255, 255);"/>
  </g>
  <path d="M 78.398 31.753 L 78.398 45.181 L 76.038 45.181 L 75.783 43.529 L 75.724 43.529 C 75.075 44.769 74.111 45.398 72.834 45.398 C 70.519 45.392 70.263 43.431 70.238 41.78 L 70.238 31.753 L 73.266 31.753 L 73.266 41.603 C 73.266 42.193 73.325 42.625 73.463 42.881 C 73.742 43.428 74.466 43.287 74.859 43.018 C 75.086 42.865 75.269 42.655 75.39 42.409 L 75.39 31.753 Z" style="fill: rgb(255, 255, 255);"/>
</svg>