<?xml version="1.0" encoding="utf-8"?>
<svg viewBox="0 0 100 72" xmlns="http://www.w3.org/2000/svg">
  <title>antenna-tower-outline</title>
  <path style="stroke-opacity: 0; stroke-width: 0px; stroke: rgb(186, 218, 85); fill: rgb(255, 255, 255);"/>
  <path style="stroke-opacity: 0; stroke-width: 0px; stroke: rgb(186, 218, 85); fill: rgb(255, 255, 255);" d="M 56.635 87.2"/>
  <rect x="12" y="12" width="76" height="48" style="fill: rgb(252, 2, 4);" rx="5.718" ry="5.718"/>
  <path style="fill: rgb(216, 216, 216); stroke: rgb(0, 0, 0);" d="M 30.948 23.911"/>
  <path style="fill: rgb(216, 216, 216); stroke: rgb(0, 0, 0);" d="M 63.062 45.303"/>
  <path style="fill: rgb(216, 216, 216); stroke: rgb(0, 0, 0);" d="M 93.989 48.639"/>
  <path style="fill: rgb(216, 216, 216); stroke: rgb(0, 0, 0);" d="M 64.509 34.85"/>
  <path style="fill: rgb(216, 216, 216); stroke: rgb(0, 0, 0);" d="M 61.634 28.873"/>
  <path style="fill: rgb(216, 216, 216); stroke: rgb(0, 0, 0);" d="M 92.587 42.283"/>
  <path style="fill: rgb(216, 216, 216); stroke: rgb(0, 0, 0);" d="M 132.742 30.004"/>
  <path style="fill: rgb(216, 216, 216); stroke: rgb(0, 0, 0);" d="M 111.42 43.292"/>
  <path style="fill: rgb(216, 216, 216); stroke: rgb(0, 0, 0);" d="M 62.734 45.582"/>
  <path style="fill: rgb(216, 216, 216); stroke: rgb(0, 0, 0);" d="M 15.464 93.601"/>
  <path d="M 59 36 C 61.76 36 63.98 33.76 63.98 31 C 63.98 28.24 61.76 26 59 26 C 56.24 26 54 28.24 54 31 C 54 33.76 56.24 36 59 36 Z M 44 34 C 47.32 34 49.98 31.32 49.98 28 C 49.98 24.68 47.32 22 44 22 C 40.68 22 38 24.68 38 28 C 38 31.32 40.68 34 44 34 Z M 59 40 C 55.34 40 48 41.84 48 45.5 L 48 50 L 70 50 L 70 45.5 C 70 41.84 62.66 40 59 40 Z M 44 38 C 39.34 38 30 40.34 30 45 L 30 50 L 44 50 L 44 45.5 C 44 43.8 44.66 40.82 48.74 38.56 C 47 38.2 45.32 38 44 38 Z" style="fill: rgb(255, 255, 255);"/>
</svg>