<?xml version="1.0" encoding="utf-8"?>
<svg viewBox="0 0 100 72" xmlns="http://www.w3.org/2000/svg" xmlns:bx="https://boxy-svg.com">
  <path style="stroke: rgb(186, 218, 85); fill: rgb(255, 255, 255);"/>
  <path style="stroke: rgb(186, 218, 85); fill: rgb(255, 255, 255);" d="M 56.635 87.2"/>
  <rect x="12" y="12" width="76" height="48" style="fill: rgb(252, 2, 4);" rx="5.718" ry="5.718"/>
  <path style="fill: rgb(216, 216, 216); stroke: rgb(0, 0, 0);" d="M 30.948 23.911"/>
  <path style="fill: rgb(216, 216, 216); stroke: rgb(0, 0, 0);" d="M 63.062 45.303"/>
  <path style="fill: rgb(216, 216, 216); stroke: rgb(0, 0, 0);" d="M 93.989 48.639"/>
  <path style="fill: rgb(216, 216, 216); stroke: rgb(0, 0, 0);" d="M 64.509 34.85"/>
  <path style="fill: rgb(216, 216, 216); stroke: rgb(0, 0, 0);" d="M 61.634 28.873"/>
  <path style="fill: rgb(216, 216, 216); stroke: rgb(0, 0, 0);" d="M 92.587 42.283"/>
  <path style="fill: rgb(216, 216, 216); stroke: rgb(0, 0, 0);" d="M 132.742 30.004"/>
  <path style="fill: rgb(216, 216, 216); stroke: rgb(0, 0, 0);" d="M 111.42 43.292"/>
  <path style="fill: rgb(216, 216, 216); stroke: rgb(0, 0, 0);" d="M 62.734 45.582"/>
  <path style="fill: rgb(216, 216, 216); stroke: rgb(0, 0, 0);" d="M 15.464 93.601"/>
  <rect x="33.501" y="22" width="33" height="3.01" style="fill: rgb(255, 255, 255);" rx="0.85" ry="0.85"/>
  <rect x="29.417" y="26.872" width="41.167" height="26" style="fill: rgb(255, 255, 255);" rx="4.099" ry="4.099"/>
  <rect x="40.001" y="17" width="20" height="3" style="fill: rgb(255, 255, 255);" rx="0.91" ry="0.91"/>
  <path d="M 38.398 115.437 L 44.398 128.437 L 32.398 128.437 L 38.398 115.437 Z" style="fill: rgb(252, 2, 4);" transform="matrix(0, 1, -1, 0, 172.4375, 1.388001)" bx:shape="triangle 32.398 115.437 12 13 0.5 0 1@47be1d73"/>
</svg>