<?xml version="1.0" encoding="utf-8"?>
<svg viewBox="0 0 100 72" xmlns="http://www.w3.org/2000/svg">
  <rect x="12" y="12" width="76" height="48" style="fill: rgb(255, 0, 0);" rx="6" ry="6"/>
  <path d="M 47.881 18 C 51.728 28.766 43.223 29.149 38.525 35.993 C 35.258 40.761 34.704 51.251 46.49 54 C 41.536 51.289 40.469 43.425 45.829 38.501 C 44.438 43.277 46.976 46.339 50.176 45.214 C 53.308 44.113 55.346 46.452 55.292 49.114 C 55.252 50.947 54.698 52.358 52.754 53.39 C 52.754 53.39 63.5 51.251 63.5 40.333 C 63.5 33.69 57.817 32.77 60.679 27.201 C 57.263 27.507 56.089 29.827 56.426 33.652 C 56.642 36.172 54.118 37.903 52.241 36.746 C 50.729 35.806 50.783 33.954 52.093 32.584 C 54.914 29.667 56.021 23.001 47.881 18 Z" style="fill: rgb(255, 255, 255);"/>
</svg>