<?xml version="1.0" encoding="utf-8"?>
<svg viewBox="0 0 100 72" xmlns="http://www.w3.org/2000/svg">
  <rect x="12" y="12" width="76" height="48" style="fill: rgb(252, 2, 4);" rx="5.718" ry="5.718"/>
  <title>antenna-tower-outline</title>
  <path style="stroke-opacity: 0; stroke-width: 0px; stroke: rgb(186, 218, 85); fill: rgb(255, 255, 255);"/>
  <path style="stroke-opacity: 0; stroke-width: 0px; stroke: rgb(186, 218, 85); fill: rgb(255, 255, 255);" d="M 56.635 87.2"/>
  <path style="fill: rgb(216, 216, 216); stroke: rgb(0, 0, 0);" d="M 30.948 23.911"/>
  <path style="fill: rgb(216, 216, 216); stroke: rgb(0, 0, 0);" d="M 63.062 45.303"/>
  <path style="fill: rgb(216, 216, 216); stroke: rgb(0, 0, 0);" d="M 93.989 48.639"/>
  <path style="fill: rgb(216, 216, 216); stroke: rgb(0, 0, 0);" d="M 64.509 34.85"/>
  <path style="fill: rgb(216, 216, 216); stroke: rgb(0, 0, 0);" d="M 61.634 28.873"/>
  <path style="fill: rgb(216, 216, 216); stroke: rgb(0, 0, 0);" d="M 92.587 42.283"/>
  <path style="fill: rgb(216, 216, 216); stroke: rgb(0, 0, 0);" d="M 132.742 30.004"/>
  <path style="fill: rgb(216, 216, 216); stroke: rgb(0, 0, 0);" d="M 111.42 43.292"/>
  <path style="fill: rgb(216, 216, 216); stroke: rgb(0, 0, 0);" d="M 62.734 45.582"/>
  <path style="fill: rgb(216, 216, 216); stroke: rgb(0, 0, 0);" d="M 15.464 93.601"/>
  <path d="M 46.223 29.333 L 46.223 42.667 L 55.667 36 L 46.223 29.333 Z M 63.223 21 L 36.777 21 C 34.7 21 33 22.5 33 24.333 L 33 47.667 C 33 49.5 34.7 51 36.777 51 L 63.223 51 C 65.3 51 67 49.5 67 47.667 L 67 24.333 C 67 22.5 65.3 21 63.223 21 Z M 63.223 47.667 L 36.777 47.667 L 36.777 24.333 L 63.223 24.333 L 63.223 47.667 Z" style="fill: rgb(255, 255, 255);"/>
</svg>