<?xml version="1.0" encoding="utf-8"?>
<svg viewBox="0 0 100 72" xmlns="http://www.w3.org/2000/svg">
  <rect x="12" y="12" width="76" height="48" style="fill: rgb(252, 2, 4);" rx="5.718" ry="5.718"/>
  <path style="stroke: rgb(186, 218, 85); fill: rgb(255, 255, 255);"/>
  <path style="stroke: rgb(186, 218, 85); fill: rgb(255, 255, 255);" d="M 56.635 87.2"/>
  <path d="M 64.318 25.364 L 52.243 25.364 L 57.477 20.131 L 56.363 19 L 50 25.364 L 43.635 19 L 42.507 20.131 L 47.757 25.364 L 35.682 25.364 C 33.932 25.364 32.5 26.781 32.5 28.545 L 32.5 47.636 C 32.5 49.386 33.932 50.818 35.682 50.818 L 64.318 50.818 C 66.068 50.818 67.5 49.386 67.5 47.636 L 67.5 28.545 C 67.5 26.781 66.068 25.364 64.318 25.364 Z M 64.318 47.636 L 35.682 47.636 L 35.682 28.545 L 64.318 28.545 L 64.318 47.636 Z M 45.227 31.728 L 45.227 44.456 L 56.363 38.091 Z" style="fill: rgb(255, 255, 255);"/>
</svg>