<?xml version="1.0" encoding="utf-8"?>
<svg viewBox="0 0 100 72" xmlns="http://www.w3.org/2000/svg">
  <title>antenna-tower-outline</title>
  <path style="stroke-opacity: 0; stroke-width: 0px; stroke: rgb(186, 218, 85); fill: rgb(255, 255, 255);"/>
  <path style="stroke-opacity: 0; stroke-width: 0px; stroke: rgb(186, 218, 85); fill: rgb(255, 255, 255);" d="M 56.635 87.2"/>
  <rect x="12" y="12" width="76" height="48" style="fill: rgb(252, 2, 4);" rx="5.718" ry="5.718"/>
  <path style="fill: rgb(216, 216, 216); stroke: rgb(0, 0, 0);" d="M 30.948 23.911"/>
  <path style="fill: rgb(216, 216, 216); stroke: rgb(0, 0, 0);" d="M 63.062 45.303"/>
  <path style="fill: rgb(216, 216, 216); stroke: rgb(0, 0, 0);" d="M 93.989 48.639"/>
  <path style="fill: rgb(216, 216, 216); stroke: rgb(0, 0, 0);" d="M 64.509 34.85"/>
  <path style="fill: rgb(216, 216, 216); stroke: rgb(0, 0, 0);" d="M 61.634 28.873"/>
  <path style="fill: rgb(216, 216, 216); stroke: rgb(0, 0, 0);" d="M 92.587 42.283"/>
  <path style="fill: rgb(216, 216, 216); stroke: rgb(0, 0, 0);" d="M 132.742 30.004"/>
  <path style="fill: rgb(216, 216, 216); stroke: rgb(0, 0, 0);" d="M 111.42 43.292"/>
  <path style="fill: rgb(216, 216, 216); stroke: rgb(0, 0, 0);" d="M 62.734 45.582"/>
  <path style="fill: rgb(216, 216, 216); stroke: rgb(0, 0, 0);" d="M 15.464 93.601"/>
  <path d="M 50 20 C 41.168 20 34 27.168 34 36 C 34 44.832 41.168 52 50 52 C 58.832 52 66 44.832 66 36 C 66 27.168 58.832 20 50 20 Z M 50 24.8 C 52.656 24.8 54.8 26.944 54.8 29.6 C 54.8 32.256 52.656 34.4 50 34.4 C 47.344 34.4 45.2 32.256 45.2 29.6 C 45.2 26.944 47.344 24.8 50 24.8 Z M 50 47.52 C 46 47.52 42.464 45.472 40.4 42.368 C 40.448 39.184 46.8 37.44 50 37.44 C 53.184 37.44 59.552 39.184 59.6 42.368 C 57.536 45.472 54 47.52 50 47.52 Z" style="fill: rgb(255, 255, 255);"/>
</svg>