<?xml version="1.0" encoding="utf-8"?>
<svg viewBox="0 0 100 72" xmlns="http://www.w3.org/2000/svg">
  <rect x="12" y="12" width="76" height="48" style="fill: rgb(255, 0, 0);" rx="6" ry="6"/>
  <path d="M 57.515 40.512 L 55.933 40.512 L 55.373 39.973 C 57.334 37.691 58.516 34.73 58.516 31.508 C 58.516 24.323 52.692 18.5 45.508 18.5 C 38.324 18.5 32.5 24.323 32.5 31.508 C 32.5 38.692 38.324 44.515 45.508 44.515 C 48.73 44.515 51.691 43.334 53.973 41.373 L 54.513 41.933 L 54.513 43.515 L 64.519 53.5 L 67.5 50.518 L 57.515 40.512 Z M 45.508 40.512 C 40.525 40.512 36.502 36.49 36.502 31.508 C 36.502 26.525 40.525 22.502 45.508 22.502 C 50.491 22.502 54.513 26.525 54.513 31.508 C 54.513 36.49 50.491 40.512 45.508 40.512 Z" style="fill: rgb(255, 255, 255);"/>
</svg>