<?xml version="1.0" encoding="utf-8"?>
<svg viewBox="0 0 100 72" xmlns="http://www.w3.org/2000/svg">
  <rect x="12" y="12" width="76" height="48" style="fill: rgb(252, 2, 4);" rx="5.718" ry="5.718"/>
  <path d="M 34 50.546 L 39.819 50.546 L 39.819 33.092 L 34 33.092 L 34 50.546 Z M 66 34.546 C 66 32.946 64.691 31.636 63.091 31.636 L 53.914 31.636 L 55.295 24.99 L 55.339 24.524 C 55.339 23.929 55.091 23.375 54.699 22.981 L 53.156 21.455 L 43.585 31.04 C 43.046 31.564 42.726 32.292 42.726 33.092 L 42.726 47.636 C 42.726 49.236 44.036 50.546 45.636 50.546 L 58.726 50.546 C 59.935 50.546 60.966 49.819 61.403 48.772 L 65.796 38.516 C 65.926 38.181 66 37.834 66 37.455 L 66 34.546 Z" style="fill: rgb(255, 255, 255);"/>
  <path style="stroke: rgb(186, 218, 85); fill: rgb(255, 255, 255);"/>
  <path style="stroke: rgb(186, 218, 85); fill: rgb(255, 255, 255);" d="M 56.635 87.2"/>
</svg>